# Blender v2.74 (sub 0) OBJ File: ''
# www.blender.org
mtllib book.mtl
o Box3
v 0.212200 0.010600 0.255000
v 0.212200 0.010600 -0.255000
v 0.212200 0.000600 0.255000
v 0.212200 0.000600 -0.255000
v -0.197800 0.010600 -0.255000
v -0.197800 0.010600 0.255000
v -0.197800 0.000600 -0.255000
v -0.197800 0.000600 0.255000
vt 1.000000 0.000000
vt 1.000000 1.000000
vt 0.000000 1.000000
vt 0.000000 0.000000
vn 1.000000 0.000000 0.000000
vn -1.000000 0.000000 0.000000
vn 0.000000 1.000000 0.000000
vn 0.000000 -1.000000 0.000000
vn 0.000000 0.000000 1.000000
vn 0.000000 0.000000 -1.000000
usemtl book_textureMaterial
s 1
f 1/1/1 3/1/1 4/2/1 2/2/1
f 5/3/2 7/3/2 8/4/2 6/4/2
f 5/3/3 6/4/3 1/1/3 2/2/3
f 8/4/4 7/3/4 4/2/4 3/1/4
f 6/4/5 8/4/5 3/1/5 1/1/5
f 2/2/6 4/2/6 7/3/6 5/3/6
o Box1
v 0.212200 0.212800 0.255000
v 0.212200 0.212800 -0.255000
v 0.212200 0.202800 0.255000
v 0.212200 0.202800 -0.255000
v -0.197800 0.212800 -0.255000
v -0.197800 0.212800 0.255000
v -0.197800 0.202800 -0.255000
v -0.197800 0.202800 0.255000
vt 1.000000 0.000000
vt 1.000000 1.000000
vt 0.000000 1.000000
vt 0.000000 0.000000
vn 1.000000 0.000000 0.000000
vn -1.000000 0.000000 0.000000
vn 0.000000 1.000000 0.000000
vn 0.000000 -1.000000 0.000000
vn 0.000000 0.000000 1.000000
vn 0.000000 0.000000 -1.000000
usemtl book_textureMaterial
s 1
f 9/5/7 11/5/7 12/6/7 10/6/7
f 13/7/8 15/7/8 16/8/8 14/8/8
f 13/7/9 14/8/9 9/5/9 10/6/9
f 16/8/10 15/7/10 12/6/10 11/5/10
f 14/8/11 16/8/11 11/5/11 9/5/11
f 10/6/12 12/6/12 15/7/12 13/7/12
o Box2
v -0.200800 0.213200 0.255000
v -0.200800 0.213200 -0.255000
v -0.200800 -0.001800 0.255000
v -0.200800 -0.001800 -0.255000
v -0.210800 0.213200 -0.255000
v -0.210800 0.213200 0.255000
v -0.210800 -0.001800 -0.255000
v -0.210800 -0.001800 0.255000
vt 1.000000 0.000000
vt 1.000000 1.000000
vt 0.000000 1.000000
vt 0.000000 0.000000
vn 1.000000 0.000000 0.000000
vn -1.000000 0.000000 0.000000
vn 0.000000 1.000000 0.000000
vn 0.000000 -1.000000 0.000000
vn 0.000000 0.000000 1.000000
vn 0.000000 0.000000 -1.000000
usemtl book_side_textureMaterial
s 1
f 17/9/13 19/9/13 20/10/13 18/10/13
f 21/11/14 23/11/14 24/12/14 22/12/14
f 21/11/15 22/12/15 17/9/15 18/10/15
f 24/12/16 23/11/16 20/10/16 19/9/16
f 22/12/17 24/12/17 19/9/17 17/9/17
f 18/10/18 20/10/18 23/11/18 21/11/18
o Box
v 0.200000 0.202000 0.250000
v 0.200000 0.202000 -0.250000
v 0.200000 0.002000 0.250000
v 0.200000 0.002000 -0.250000
v -0.200000 0.202000 -0.250000
v -0.200000 0.202000 0.250000
v -0.200000 0.002000 -0.250000
v -0.200000 0.002000 0.250000
vt 1.000000 0.000000
vt 1.000000 1.000000
vt 0.000000 1.000000
vt 0.000000 0.000000
vn 1.000000 0.000000 0.000000
vn -1.000000 0.000000 0.000000
vn 0.000000 1.000000 0.000000
vn 0.000000 -1.000000 0.000000
vn 0.000000 0.000000 1.000000
vn 0.000000 0.000000 -1.000000
usemtl b0b0b0
s 1
f 25/13/19 27/13/19 28/14/19 26/14/19
f 29/15/20 31/15/20 32/16/20 30/16/20
f 29/15/21 30/16/21 25/13/21 26/14/21
f 32/16/22 31/15/22 28/14/22 27/13/22
f 30/16/23 32/16/23 27/13/23 25/13/23
f 26/14/24 28/14/24 31/15/24 29/15/24
